{
	"patcher" : 	{
		"fileversion" : 1,
		"appversion" : 		{
			"major" : 7,
			"minor" : 3,
			"revision" : 4,
			"architecture" : "x64",
			"modernui" : 1
		}
,
		"rect" : [ 274.0, 153.0, 465.0, 683.0 ],
		"bglocked" : 0,
		"openinpresentation" : 0,
		"default_fontsize" : 12.0,
		"default_fontface" : 0,
		"default_fontname" : "Arial",
		"gridonopen" : 1,
		"gridsize" : [ 15.0, 15.0 ],
		"gridsnaponopen" : 2,
		"objectsnaponopen" : 0,
		"statusbarvisible" : 2,
		"toolbarvisible" : 1,
		"lefttoolbarpinned" : 0,
		"toptoolbarpinned" : 0,
		"righttoolbarpinned" : 0,
		"bottomtoolbarpinned" : 0,
		"toolbars_unpinned_last_save" : 11,
		"tallnewobj" : 0,
		"boxanimatetime" : 200,
		"enablehscroll" : 1,
		"enablevscroll" : 1,
		"devicewidth" : 0.0,
		"description" : "",
		"digest" : "",
		"tags" : "",
		"style" : "",
		"subpatcher_template" : "",
		"boxes" : [ 			{
				"box" : 				{
					"id" : "obj-33",
					"maxclass" : "button",
					"numinlets" : 1,
					"numoutlets" : 1,
					"outlettype" : [ "bang" ],
					"patching_rect" : [ 30.0, 150.0, 24.0, 24.0 ],
					"style" : ""
				}

			}
, 			{
				"box" : 				{
					"id" : "obj-31",
					"maxclass" : "toggle",
					"numinlets" : 1,
					"numoutlets" : 1,
					"outlettype" : [ "int" ],
					"parameter_enable" : 0,
					"patching_rect" : [ 45.0, 360.0, 24.0, 24.0 ],
					"style" : ""
				}

			}
, 			{
				"box" : 				{
					"id" : "obj-29",
					"maxclass" : "message",
					"numinlets" : 2,
					"numoutlets" : 1,
					"outlettype" : [ "" ],
					"patching_rect" : [ 45.0, 390.0, 57.0, 22.0 ],
					"style" : "",
					"text" : "audio $1"
				}

			}
, 			{
				"box" : 				{
					"id" : "obj-21",
					"maxclass" : "ezdac~",
					"numinlets" : 2,
					"numoutlets" : 0,
					"patching_rect" : [ 345.0, 15.0, 45.0, 45.0 ],
					"style" : "",
					"varname" : "ezdac"
				}

			}
, 			{
				"box" : 				{
					"color" : [ 0.741176, 0.356863, 0.047059, 1.0 ],
					"id" : "obj-20",
					"maxclass" : "newobj",
					"numinlets" : 0,
					"numoutlets" : 0,
					"patcher" : 					{
						"fileversion" : 1,
						"appversion" : 						{
							"major" : 7,
							"minor" : 3,
							"revision" : 4,
							"architecture" : "x64",
							"modernui" : 1
						}
,
						"rect" : [ 1163.0, -985.0, 608.0, 909.0 ],
						"bgcolor" : [ 0.2, 0.2, 0.2, 1.0 ],
						"editing_bgcolor" : [ 0.2, 0.2, 0.2, 1.0 ],
						"bglocked" : 0,
						"openinpresentation" : 0,
						"default_fontsize" : 12.0,
						"default_fontface" : 0,
						"default_fontname" : "Arial",
						"gridonopen" : 1,
						"gridsize" : [ 15.0, 15.0 ],
						"gridsnaponopen" : 2,
						"objectsnaponopen" : 0,
						"statusbarvisible" : 2,
						"toolbarvisible" : 1,
						"lefttoolbarpinned" : 0,
						"toptoolbarpinned" : 0,
						"righttoolbarpinned" : 0,
						"bottomtoolbarpinned" : 0,
						"toolbars_unpinned_last_save" : 11,
						"tallnewobj" : 0,
						"boxanimatetime" : 200,
						"enablehscroll" : 1,
						"enablevscroll" : 1,
						"devicewidth" : 0.0,
						"description" : "",
						"digest" : "",
						"tags" : "",
						"style" : "",
						"subpatcher_template" : "dark_std",
						"visible" : 1,
						"boxes" : [  ],
						"lines" : [  ],
						"default_bgcolor" : [ 0.0, 0.0, 0.0, 1.0 ],
						"color" : [ 0.960784, 0.827451, 0.156863, 1.0 ],
						"elementcolor" : [ 0.498039, 0.462745, 0.376471, 1.0 ],
						"selectioncolor" : [ 0.784314, 0.145098, 0.023529, 1.0 ],
						"textcolor" : [ 0.960784, 0.827451, 0.156863, 1.0 ],
						"textcolor_inverse" : [ 0.960784, 0.827451, 0.156863, 1.0 ],
						"clearcolor" : [ 0.2, 0.2, 0.2, 1.0 ],
						"bgfillcolor_type" : "color",
						"bgfillcolor_color1" : [ 0.0, 0.0, 0.0, 1.0 ],
						"bgfillcolor_color2" : [ 0.290196, 0.309804, 0.301961, 1.0 ],
						"bgfillcolor_color" : [ 0.0, 0.0, 0.0, 1.0 ],
						"bgfillcolor_angle" : 270.0,
						"bgfillcolor_proportion" : 0.39
					}
,
					"patching_rect" : [ 255.0, 45.0, 51.0, 22.0 ],
					"saved_object_attributes" : 					{
						"bgcolor" : [ 0.0, 0.0, 0.0, 1.0 ],
						"clearcolor" : [ 0.2, 0.2, 0.2, 1.0 ],
						"color" : [ 0.960784, 0.827451, 0.156863, 1.0 ],
						"description" : "",
						"digest" : "",
						"elementcolor" : [ 0.498039, 0.462745, 0.376471, 1.0 ],
						"globalpatchername" : "",
						"selectioncolor" : [ 0.784314, 0.145098, 0.023529, 1.0 ],
						"style" : "",
						"tags" : "",
						"textcolor" : [ 0.960784, 0.827451, 0.156863, 1.0 ],
						"textcolor_inverse" : [ 0.960784, 0.827451, 0.156863, 1.0 ]
					}
,
					"style" : "",
					"text" : "p views",
					"varname" : "views"
				}

			}
, 			{
				"box" : 				{
					"color" : [ 0.741176, 0.356863, 0.047059, 1.0 ],
					"id" : "obj-17",
					"maxclass" : "newobj",
					"numinlets" : 0,
					"numoutlets" : 0,
					"patcher" : 					{
						"fileversion" : 1,
						"appversion" : 						{
							"major" : 7,
							"minor" : 3,
							"revision" : 4,
							"architecture" : "x64",
							"modernui" : 1
						}
,
						"rect" : [ 529.0, -971.0, 650.0, 887.0 ],
						"bgcolor" : [ 0.2, 0.2, 0.2, 1.0 ],
						"editing_bgcolor" : [ 0.2, 0.2, 0.2, 1.0 ],
						"bglocked" : 0,
						"openinpresentation" : 0,
						"default_fontsize" : 12.0,
						"default_fontface" : 0,
						"default_fontname" : "Arial",
						"gridonopen" : 1,
						"gridsize" : [ 15.0, 15.0 ],
						"gridsnaponopen" : 2,
						"objectsnaponopen" : 0,
						"statusbarvisible" : 2,
						"toolbarvisible" : 1,
						"lefttoolbarpinned" : 0,
						"toptoolbarpinned" : 0,
						"righttoolbarpinned" : 0,
						"bottomtoolbarpinned" : 0,
						"toolbars_unpinned_last_save" : 11,
						"tallnewobj" : 0,
						"boxanimatetime" : 200,
						"enablehscroll" : 1,
						"enablevscroll" : 1,
						"devicewidth" : 0.0,
						"description" : "",
						"digest" : "",
						"tags" : "",
						"style" : "",
						"subpatcher_template" : "dark_std",
						"visible" : 1,
						"boxes" : [ 							{
								"box" : 								{
									"id" : "obj-25",
									"maxclass" : "newobj",
									"numinlets" : 1,
									"numoutlets" : 0,
									"patching_rect" : [ 15.0, 15.0, 100.0, 22.0 ],
									"style" : "",
									"text" : "print 1@$%",
									"varname" : "pp"
								}

							}
 ],
						"lines" : [  ],
						"default_bgcolor" : [ 0.0, 0.0, 0.0, 1.0 ],
						"color" : [ 0.960784, 0.827451, 0.156863, 1.0 ],
						"elementcolor" : [ 0.498039, 0.462745, 0.376471, 1.0 ],
						"selectioncolor" : [ 0.784314, 0.145098, 0.023529, 1.0 ],
						"textcolor" : [ 0.960784, 0.827451, 0.156863, 1.0 ],
						"textcolor_inverse" : [ 0.960784, 0.827451, 0.156863, 1.0 ],
						"clearcolor" : [ 0.2, 0.2, 0.2, 1.0 ],
						"bgfillcolor_type" : "color",
						"bgfillcolor_color1" : [ 0.0, 0.0, 0.0, 1.0 ],
						"bgfillcolor_color2" : [ 0.290196, 0.309804, 0.301961, 1.0 ],
						"bgfillcolor_color" : [ 0.0, 0.0, 0.0, 1.0 ],
						"bgfillcolor_angle" : 270.0,
						"bgfillcolor_proportion" : 0.39
					}
,
					"patching_rect" : [ 255.0, 15.0, 59.0, 22.0 ],
					"saved_object_attributes" : 					{
						"bgcolor" : [ 0.0, 0.0, 0.0, 1.0 ],
						"clearcolor" : [ 0.2, 0.2, 0.2, 1.0 ],
						"color" : [ 0.960784, 0.827451, 0.156863, 1.0 ],
						"description" : "",
						"digest" : "",
						"elementcolor" : [ 0.498039, 0.462745, 0.376471, 1.0 ],
						"globalpatchername" : "",
						"selectioncolor" : [ 0.784314, 0.145098, 0.023529, 1.0 ],
						"style" : "",
						"tags" : "",
						"textcolor" : [ 0.960784, 0.827451, 0.156863, 1.0 ],
						"textcolor_inverse" : [ 0.960784, 0.827451, 0.156863, 1.0 ]
					}
,
					"style" : "",
					"text" : "p models",
					"varname" : "models"
				}

			}
, 			{
				"box" : 				{
					"id" : "obj-14",
					"maxclass" : "message",
					"numinlets" : 2,
					"numoutlets" : 1,
					"outlettype" : [ "" ],
					"patching_rect" : [ 105.0, 330.0, 117.0, 22.0 ],
					"style" : "",
					"text" : "delview force force0"
				}

			}
, 			{
				"box" : 				{
					"id" : "obj-15",
					"maxclass" : "message",
					"numinlets" : 2,
					"numoutlets" : 1,
					"outlettype" : [ "" ],
					"patching_rect" : [ 105.0, 300.0, 109.0, 22.0 ],
					"style" : "",
					"text" : "delview myo myo0"
				}

			}
, 			{
				"box" : 				{
					"id" : "obj-12",
					"maxclass" : "message",
					"numinlets" : 2,
					"numoutlets" : 1,
					"outlettype" : [ "" ],
					"patching_rect" : [ 90.0, 270.0, 101.0, 22.0 ],
					"style" : "",
					"text" : "view force force0"
				}

			}
, 			{
				"box" : 				{
					"id" : "obj-13",
					"maxclass" : "message",
					"numinlets" : 2,
					"numoutlets" : 1,
					"outlettype" : [ "" ],
					"patching_rect" : [ 90.0, 240.0, 93.0, 22.0 ],
					"style" : "",
					"text" : "view myo myo0"
				}

			}
, 			{
				"box" : 				{
					"id" : "obj-1",
					"maxclass" : "message",
					"numinlets" : 2,
					"numoutlets" : 1,
					"outlettype" : [ "" ],
					"patching_rect" : [ 75.0, 210.0, 93.0, 22.0 ],
					"style" : "",
					"text" : "del force force0"
				}

			}
, 			{
				"box" : 				{
					"id" : "obj-6",
					"maxclass" : "message",
					"numinlets" : 2,
					"numoutlets" : 1,
					"outlettype" : [ "" ],
					"patching_rect" : [ 75.0, 180.0, 85.0, 22.0 ],
					"style" : "",
					"text" : "del myo myo0"
				}

			}
, 			{
				"box" : 				{
					"id" : "obj-23",
					"maxclass" : "message",
					"numinlets" : 2,
					"numoutlets" : 1,
					"outlettype" : [ "" ],
					"patching_rect" : [ 120.0, 390.0, 121.0, 22.0 ],
					"style" : "",
					"text" : "disc myo0 2 force0 0"
				}

			}
, 			{
				"box" : 				{
					"id" : "obj-22",
					"maxclass" : "message",
					"numinlets" : 2,
					"numoutlets" : 1,
					"outlettype" : [ "" ],
					"patching_rect" : [ 120.0, 360.0, 126.0, 22.0 ],
					"style" : "",
					"text" : "conn myo0 2 force0 0"
				}

			}
, 			{
				"box" : 				{
					"id" : "obj-19",
					"maxclass" : "message",
					"numinlets" : 2,
					"numoutlets" : 1,
					"outlettype" : [ "" ],
					"patching_rect" : [ 60.0, 150.0, 97.0, 22.0 ],
					"style" : "",
					"text" : "add force force0"
				}

			}
, 			{
				"box" : 				{
					"id" : "obj-7",
					"maxclass" : "message",
					"numinlets" : 2,
					"numoutlets" : 1,
					"outlettype" : [ "" ],
					"patching_rect" : [ 60.0, 120.0, 89.0, 22.0 ],
					"style" : "",
					"text" : "add myo myo0"
				}

			}
, 			{
				"box" : 				{
					"id" : "obj-4",
					"maxclass" : "message",
					"numinlets" : 2,
					"numoutlets" : 1,
					"outlettype" : [ "" ],
					"patching_rect" : [ 15.0, 120.0, 29.5, 22.0 ],
					"style" : "",
					"text" : "init"
				}

			}
, 			{
				"box" : 				{
					"color" : [ 0.741176, 0.356863, 0.047059, 1.0 ],
					"id" : "obj-11",
					"maxclass" : "newobj",
					"numinlets" : 1,
					"numoutlets" : 0,
					"patcher" : 					{
						"fileversion" : 1,
						"appversion" : 						{
							"major" : 7,
							"minor" : 3,
							"revision" : 4,
							"architecture" : "x64",
							"modernui" : 1
						}
,
						"rect" : [ 1058.0, 443.0, 820.0, 565.0 ],
						"bgcolor" : [ 0.2, 0.2, 0.2, 1.0 ],
						"editing_bgcolor" : [ 0.2, 0.2, 0.2, 1.0 ],
						"bglocked" : 0,
						"openinpresentation" : 0,
						"default_fontsize" : 12.0,
						"default_fontface" : 0,
						"default_fontname" : "Arial",
						"gridonopen" : 1,
						"gridsize" : [ 15.0, 15.0 ],
						"gridsnaponopen" : 2,
						"objectsnaponopen" : 0,
						"statusbarvisible" : 2,
						"toolbarvisible" : 1,
						"lefttoolbarpinned" : 0,
						"toptoolbarpinned" : 0,
						"righttoolbarpinned" : 0,
						"bottomtoolbarpinned" : 0,
						"toolbars_unpinned_last_save" : 11,
						"tallnewobj" : 0,
						"boxanimatetime" : 200,
						"enablehscroll" : 1,
						"enablevscroll" : 1,
						"devicewidth" : 0.0,
						"description" : "",
						"digest" : "",
						"tags" : "",
						"style" : "",
						"subpatcher_template" : "dark_std",
						"boxes" : [ 							{
								"box" : 								{
									"color" : [ 0.0, 0.533333, 0.168627, 1.0 ],
									"id" : "obj-10",
									"maxclass" : "newobj",
									"numinlets" : 1,
									"numoutlets" : 0,
									"patching_rect" : [ 30.0, 150.0, 28.0, 22.0 ],
									"style" : "",
									"text" : "s js"
								}

							}
, 							{
								"box" : 								{
									"id" : "obj-2",
									"maxclass" : "newobj",
									"numinlets" : 1,
									"numoutlets" : 1,
									"outlettype" : [ "" ],
									"patching_rect" : [ 30.0, 105.0, 121.0, 22.0 ],
									"style" : "",
									"text" : "prepend open_editor"
								}

							}
, 							{
								"box" : 								{
									"id" : "obj-5",
									"maxclass" : "comment",
									"numinlets" : 1,
									"numoutlets" : 0,
									"patching_rect" : [ 30.0, 30.0, 75.0, 20.0 ],
									"style" : "",
									"text" : "open editor"
								}

							}
, 							{
								"box" : 								{
									"comment" : "",
									"id" : "obj-1",
									"index" : 1,
									"maxclass" : "inlet",
									"numinlets" : 0,
									"numoutlets" : 1,
									"outlettype" : [ "bang" ],
									"patching_rect" : [ 30.0, 60.0, 30.0, 30.0 ],
									"style" : ""
								}

							}
 ],
						"lines" : [ 							{
								"patchline" : 								{
									"destination" : [ "obj-2", 0 ],
									"source" : [ "obj-1", 0 ]
								}

							}
, 							{
								"patchline" : 								{
									"destination" : [ "obj-10", 0 ],
									"source" : [ "obj-2", 0 ]
								}

							}
 ],
						"default_bgcolor" : [ 0.0, 0.0, 0.0, 1.0 ],
						"color" : [ 0.960784, 0.827451, 0.156863, 1.0 ],
						"elementcolor" : [ 0.498039, 0.462745, 0.376471, 1.0 ],
						"selectioncolor" : [ 0.784314, 0.145098, 0.023529, 1.0 ],
						"textcolor" : [ 0.960784, 0.827451, 0.156863, 1.0 ],
						"textcolor_inverse" : [ 0.960784, 0.827451, 0.156863, 1.0 ],
						"clearcolor" : [ 0.2, 0.2, 0.2, 1.0 ],
						"bgfillcolor_type" : "color",
						"bgfillcolor_color1" : [ 0.0, 0.0, 0.0, 1.0 ],
						"bgfillcolor_color2" : [ 0.290196, 0.309804, 0.301961, 1.0 ],
						"bgfillcolor_color" : [ 0.0, 0.0, 0.0, 1.0 ],
						"bgfillcolor_angle" : 270.0,
						"bgfillcolor_proportion" : 0.39
					}
,
					"patching_rect" : [ 60.0, 45.0, 43.0, 22.0 ],
					"saved_object_attributes" : 					{
						"bgcolor" : [ 0.0, 0.0, 0.0, 1.0 ],
						"clearcolor" : [ 0.2, 0.2, 0.2, 1.0 ],
						"color" : [ 0.960784, 0.827451, 0.156863, 1.0 ],
						"description" : "",
						"digest" : "",
						"elementcolor" : [ 0.498039, 0.462745, 0.376471, 1.0 ],
						"globalpatchername" : "",
						"selectioncolor" : [ 0.784314, 0.145098, 0.023529, 1.0 ],
						"style" : "",
						"tags" : "",
						"textcolor" : [ 0.960784, 0.827451, 0.156863, 1.0 ],
						"textcolor_inverse" : [ 0.960784, 0.827451, 0.156863, 1.0 ]
					}
,
					"style" : "",
					"text" : "p cmd"
				}

			}
, 			{
				"box" : 				{
					"color" : [ 0.0, 0.533333, 0.168627, 1.0 ],
					"id" : "obj-10",
					"maxclass" : "newobj",
					"numinlets" : 1,
					"numoutlets" : 0,
					"patching_rect" : [ 15.0, 315.0, 28.0, 22.0 ],
					"style" : "",
					"text" : "s js"
				}

			}
, 			{
				"box" : 				{
					"color" : [ 0.741176, 0.356863, 0.047059, 1.0 ],
					"id" : "obj-9",
					"maxclass" : "newobj",
					"numinlets" : 0,
					"numoutlets" : 0,
					"patcher" : 					{
						"fileversion" : 1,
						"appversion" : 						{
							"major" : 7,
							"minor" : 3,
							"revision" : 4,
							"architecture" : "x64",
							"modernui" : 1
						}
,
						"rect" : [ 563.0, 133.0, 770.0, 826.0 ],
						"bgcolor" : [ 0.2, 0.2, 0.2, 1.0 ],
						"editing_bgcolor" : [ 0.2, 0.2, 0.2, 1.0 ],
						"bglocked" : 0,
						"openinpresentation" : 0,
						"default_fontsize" : 12.0,
						"default_fontface" : 0,
						"default_fontname" : "Arial",
						"gridonopen" : 1,
						"gridsize" : [ 15.0, 15.0 ],
						"gridsnaponopen" : 2,
						"objectsnaponopen" : 0,
						"statusbarvisible" : 2,
						"toolbarvisible" : 1,
						"lefttoolbarpinned" : 0,
						"toptoolbarpinned" : 0,
						"righttoolbarpinned" : 0,
						"bottomtoolbarpinned" : 0,
						"toolbars_unpinned_last_save" : 11,
						"tallnewobj" : 0,
						"boxanimatetime" : 200,
						"enablehscroll" : 1,
						"enablevscroll" : 1,
						"devicewidth" : 0.0,
						"description" : "",
						"digest" : "",
						"tags" : "",
						"style" : "",
						"subpatcher_template" : "dark_std",
						"visible" : 1,
						"boxes" : [ 							{
								"box" : 								{
									"id" : "obj-6",
									"maxclass" : "message",
									"numinlets" : 2,
									"numoutlets" : 1,
									"outlettype" : [ "" ],
									"patching_rect" : [ 255.0, 165.0, 270.0, 22.0 ],
									"style" : "",
									"text" : "mess maxobj pp sym \"hELLO WORLD\""
								}

							}
, 							{
								"box" : 								{
									"id" : "obj-4",
									"maxclass" : "message",
									"numinlets" : 2,
									"numoutlets" : 1,
									"outlettype" : [ "" ],
									"patching_rect" : [ 255.0, 120.0, 270.0, 22.0 ],
									"style" : "",
									"text" : "\"mess maxobj pp sym \\\"hELLO WORLD\\\"\""
								}

							}
, 							{
								"box" : 								{
									"id" : "obj-28",
									"maxclass" : "newobj",
									"numinlets" : 1,
									"numoutlets" : 1,
									"outlettype" : [ "" ],
									"patching_rect" : [ 30.0, 120.0, 73.0, 22.0 ],
									"style" : "",
									"text" : "fromsymbol"
								}

							}
, 							{
								"box" : 								{
									"color" : [ 0.0, 0.533333, 0.168627, 1.0 ],
									"id" : "obj-27",
									"maxclass" : "newobj",
									"numinlets" : 1,
									"numoutlets" : 0,
									"patching_rect" : [ 30.0, 165.0, 28.0, 22.0 ],
									"style" : "",
									"text" : "s js"
								}

							}
, 							{
								"box" : 								{
									"id" : "obj-26",
									"maxclass" : "comment",
									"numinlets" : 1,
									"numoutlets" : 0,
									"patching_rect" : [ 255.0, 30.0, 120.0, 20.0 ],
									"style" : "",
									"text" : "bang is necessary "
								}

							}
, 							{
								"box" : 								{
									"id" : "obj-24",
									"maxclass" : "newobj",
									"numinlets" : 2,
									"numoutlets" : 1,
									"outlettype" : [ "bang" ],
									"patching_rect" : [ 105.0, 30.0, 135.0, 22.0 ],
									"style" : "",
									"text" : "qmetro 1000 @active 1"
								}

							}
, 							{
								"box" : 								{
									"id" : "obj-13",
									"maxclass" : "message",
									"numinlets" : 2,
									"numoutlets" : 1,
									"outlettype" : [ "" ],
									"patching_rect" : [ 120.0, 240.0, 405.0, 22.0 ],
									"style" : "",
									"text" : "launchbrowser live.editor.html"
								}

							}
, 							{
								"box" : 								{
									"id" : "obj-11",
									"maxclass" : "newobj",
									"numinlets" : 1,
									"numoutlets" : 0,
									"patching_rect" : [ 135.0, 120.0, 92.0, 22.0 ],
									"style" : "",
									"text" : "print WS.status"
								}

							}
, 							{
								"box" : 								{
									"color" : [ 0.0, 0.533333, 0.168627, 1.0 ],
									"id" : "obj-9",
									"maxclass" : "newobj",
									"numinlets" : 0,
									"numoutlets" : 1,
									"outlettype" : [ "" ],
									"patching_rect" : [ 30.0, 240.0, 54.0, 22.0 ],
									"style" : "",
									"text" : "r to.max"
								}

							}
, 							{
								"box" : 								{
									"id" : "obj-5",
									"maxclass" : "newobj",
									"numinlets" : 1,
									"numoutlets" : 0,
									"patching_rect" : [ 30.0, 285.0, 77.0, 22.0 ],
									"style" : "",
									"text" : "forward max"
								}

							}
, 							{
								"box" : 								{
									"color" : [ 0.0, 0.533333, 0.168627, 1.0 ],
									"id" : "obj-2",
									"maxclass" : "newobj",
									"numinlets" : 0,
									"numoutlets" : 1,
									"outlettype" : [ "" ],
									"patching_rect" : [ 30.0, 30.0, 32.0, 22.0 ],
									"style" : "",
									"text" : "r ws"
								}

							}
, 							{
								"box" : 								{
									"id" : "obj-1",
									"maxclass" : "newobj",
									"numinlets" : 1,
									"numoutlets" : 2,
									"outlettype" : [ "", "" ],
									"patching_rect" : [ 30.0, 75.0, 91.0, 22.0 ],
									"style" : "",
									"text" : "ws @port 8082"
								}

							}
 ],
						"lines" : [ 							{
								"patchline" : 								{
									"destination" : [ "obj-11", 0 ],
									"source" : [ "obj-1", 1 ]
								}

							}
, 							{
								"patchline" : 								{
									"destination" : [ "obj-28", 0 ],
									"order" : 1,
									"source" : [ "obj-1", 0 ]
								}

							}
, 							{
								"patchline" : 								{
									"destination" : [ "obj-4", 1 ],
									"order" : 0,
									"source" : [ "obj-1", 0 ]
								}

							}
, 							{
								"patchline" : 								{
									"destination" : [ "obj-1", 0 ],
									"source" : [ "obj-2", 0 ]
								}

							}
, 							{
								"patchline" : 								{
									"destination" : [ "obj-1", 0 ],
									"source" : [ "obj-24", 0 ]
								}

							}
, 							{
								"patchline" : 								{
									"destination" : [ "obj-27", 0 ],
									"order" : 1,
									"source" : [ "obj-28", 0 ]
								}

							}
, 							{
								"patchline" : 								{
									"destination" : [ "obj-6", 1 ],
									"order" : 0,
									"source" : [ "obj-28", 0 ]
								}

							}
, 							{
								"patchline" : 								{
									"destination" : [ "obj-13", 1 ],
									"order" : 0,
									"source" : [ "obj-9", 0 ]
								}

							}
, 							{
								"patchline" : 								{
									"destination" : [ "obj-5", 0 ],
									"order" : 1,
									"source" : [ "obj-9", 0 ]
								}

							}
 ],
						"default_bgcolor" : [ 0.0, 0.0, 0.0, 1.0 ],
						"color" : [ 0.960784, 0.827451, 0.156863, 1.0 ],
						"elementcolor" : [ 0.498039, 0.462745, 0.376471, 1.0 ],
						"selectioncolor" : [ 0.784314, 0.145098, 0.023529, 1.0 ],
						"textcolor" : [ 0.960784, 0.827451, 0.156863, 1.0 ],
						"textcolor_inverse" : [ 0.960784, 0.827451, 0.156863, 1.0 ],
						"clearcolor" : [ 0.2, 0.2, 0.2, 1.0 ],
						"bgfillcolor_type" : "color",
						"bgfillcolor_color1" : [ 0.0, 0.0, 0.0, 1.0 ],
						"bgfillcolor_color2" : [ 0.290196, 0.309804, 0.301961, 1.0 ],
						"bgfillcolor_color" : [ 0.0, 0.0, 0.0, 1.0 ],
						"bgfillcolor_angle" : 270.0,
						"bgfillcolor_proportion" : 0.39
					}
,
					"patching_rect" : [ 135.0, 45.0, 101.0, 22.0 ],
					"saved_object_attributes" : 					{
						"bgcolor" : [ 0.0, 0.0, 0.0, 1.0 ],
						"clearcolor" : [ 0.2, 0.2, 0.2, 1.0 ],
						"color" : [ 0.960784, 0.827451, 0.156863, 1.0 ],
						"description" : "",
						"digest" : "",
						"elementcolor" : [ 0.498039, 0.462745, 0.376471, 1.0 ],
						"globalpatchername" : "",
						"selectioncolor" : [ 0.784314, 0.145098, 0.023529, 1.0 ],
						"style" : "",
						"tags" : "",
						"textcolor" : [ 0.960784, 0.827451, 0.156863, 1.0 ],
						"textcolor_inverse" : [ 0.960784, 0.827451, 0.156863, 1.0 ]
					}
,
					"style" : "",
					"text" : "p communication"
				}

			}
, 			{
				"box" : 				{
					"color" : [ 0.741176, 0.356863, 0.047059, 1.0 ],
					"id" : "obj-8",
					"maxclass" : "newobj",
					"numinlets" : 0,
					"numoutlets" : 0,
					"patcher" : 					{
						"fileversion" : 1,
						"appversion" : 						{
							"major" : 7,
							"minor" : 3,
							"revision" : 4,
							"architecture" : "x64",
							"modernui" : 1
						}
,
						"rect" : [ 58.0, 101.0, 820.0, 565.0 ],
						"bgcolor" : [ 0.2, 0.2, 0.2, 1.0 ],
						"editing_bgcolor" : [ 0.2, 0.2, 0.2, 1.0 ],
						"bglocked" : 0,
						"openinpresentation" : 0,
						"default_fontsize" : 12.0,
						"default_fontface" : 0,
						"default_fontname" : "Arial",
						"gridonopen" : 1,
						"gridsize" : [ 15.0, 15.0 ],
						"gridsnaponopen" : 2,
						"objectsnaponopen" : 0,
						"statusbarvisible" : 2,
						"toolbarvisible" : 1,
						"lefttoolbarpinned" : 0,
						"toptoolbarpinned" : 0,
						"righttoolbarpinned" : 0,
						"bottomtoolbarpinned" : 0,
						"toolbars_unpinned_last_save" : 11,
						"tallnewobj" : 0,
						"boxanimatetime" : 200,
						"enablehscroll" : 1,
						"enablevscroll" : 1,
						"devicewidth" : 0.0,
						"description" : "",
						"digest" : "",
						"tags" : "",
						"style" : "",
						"subpatcher_template" : "dark_std",
						"boxes" : [  ],
						"lines" : [  ],
						"default_bgcolor" : [ 0.0, 0.0, 0.0, 1.0 ],
						"color" : [ 0.960784, 0.827451, 0.156863, 1.0 ],
						"elementcolor" : [ 0.498039, 0.462745, 0.376471, 1.0 ],
						"selectioncolor" : [ 0.784314, 0.145098, 0.023529, 1.0 ],
						"textcolor" : [ 0.960784, 0.827451, 0.156863, 1.0 ],
						"textcolor_inverse" : [ 0.960784, 0.827451, 0.156863, 1.0 ],
						"clearcolor" : [ 0.2, 0.2, 0.2, 1.0 ],
						"bgfillcolor_type" : "color",
						"bgfillcolor_color1" : [ 0.0, 0.0, 0.0, 1.0 ],
						"bgfillcolor_color2" : [ 0.290196, 0.309804, 0.301961, 1.0 ],
						"bgfillcolor_color" : [ 0.0, 0.0, 0.0, 1.0 ],
						"bgfillcolor_angle" : 270.0,
						"bgfillcolor_proportion" : 0.39
					}
,
					"patching_rect" : [ 255.0, 75.0, 39.0, 22.0 ],
					"saved_object_attributes" : 					{
						"bgcolor" : [ 0.0, 0.0, 0.0, 1.0 ],
						"clearcolor" : [ 0.2, 0.2, 0.2, 1.0 ],
						"color" : [ 0.960784, 0.827451, 0.156863, 1.0 ],
						"description" : "",
						"digest" : "",
						"elementcolor" : [ 0.498039, 0.462745, 0.376471, 1.0 ],
						"globalpatchername" : "",
						"selectioncolor" : [ 0.784314, 0.145098, 0.023529, 1.0 ],
						"style" : "",
						"tags" : "",
						"textcolor" : [ 0.960784, 0.827451, 0.156863, 1.0 ],
						"textcolor_inverse" : [ 0.960784, 0.827451, 0.156863, 1.0 ]
					}
,
					"style" : "",
					"text" : "p null"
				}

			}
, 			{
				"box" : 				{
					"color" : [ 0.741176, 0.356863, 0.047059, 1.0 ],
					"id" : "obj-2",
					"maxclass" : "newobj",
					"numinlets" : 0,
					"numoutlets" : 0,
					"patcher" : 					{
						"fileversion" : 1,
						"appversion" : 						{
							"major" : 7,
							"minor" : 3,
							"revision" : 4,
							"architecture" : "x64",
							"modernui" : 1
						}
,
						"rect" : [ 426.0, 321.0, 820.0, 565.0 ],
						"bgcolor" : [ 0.2, 0.2, 0.2, 1.0 ],
						"editing_bgcolor" : [ 0.2, 0.2, 0.2, 1.0 ],
						"bglocked" : 0,
						"openinpresentation" : 0,
						"default_fontsize" : 12.0,
						"default_fontface" : 0,
						"default_fontname" : "Arial",
						"gridonopen" : 1,
						"gridsize" : [ 15.0, 15.0 ],
						"gridsnaponopen" : 2,
						"objectsnaponopen" : 0,
						"statusbarvisible" : 2,
						"toolbarvisible" : 1,
						"lefttoolbarpinned" : 0,
						"toptoolbarpinned" : 0,
						"righttoolbarpinned" : 0,
						"bottomtoolbarpinned" : 0,
						"toolbars_unpinned_last_save" : 3,
						"tallnewobj" : 0,
						"boxanimatetime" : 200,
						"enablehscroll" : 1,
						"enablevscroll" : 1,
						"devicewidth" : 0.0,
						"description" : "",
						"digest" : "",
						"tags" : "",
						"style" : "",
						"subpatcher_template" : "dark_std",
						"boxes" : [ 							{
								"box" : 								{
									"color" : [ 0.0, 0.533333, 0.168627, 1.0 ],
									"id" : "obj-3",
									"maxclass" : "newobj",
									"numinlets" : 1,
									"numoutlets" : 0,
									"patching_rect" : [ 30.0, 135.0, 56.0, 22.0 ],
									"style" : "",
									"text" : "s to.max"
								}

							}
, 							{
								"box" : 								{
									"id" : "obj-2",
									"maxclass" : "message",
									"numinlets" : 2,
									"numoutlets" : 1,
									"outlettype" : [ "" ],
									"patching_rect" : [ 180.0, 30.0, 29.5, 22.0 ],
									"style" : "",
									"text" : "init"
								}

							}
, 							{
								"box" : 								{
									"id" : "obj-8",
									"maxclass" : "message",
									"numinlets" : 2,
									"numoutlets" : 1,
									"outlettype" : [ "" ],
									"patching_rect" : [ 90.0, 30.0, 75.0, 22.0 ],
									"style" : "",
									"text" : "autowatch 1"
								}

							}
, 							{
								"box" : 								{
									"id" : "obj-6",
									"maxclass" : "newobj",
									"numinlets" : 1,
									"numoutlets" : 0,
									"patching_rect" : [ 120.0, 135.0, 51.0, 22.0 ],
									"style" : "",
									"text" : "print JS"
								}

							}
, 							{
								"box" : 								{
									"color" : [ 0.0, 0.533333, 0.168627, 1.0 ],
									"id" : "obj-5",
									"maxclass" : "newobj",
									"numinlets" : 0,
									"numoutlets" : 1,
									"outlettype" : [ "" ],
									"patching_rect" : [ 30.0, 30.0, 26.0, 22.0 ],
									"style" : "",
									"text" : "r js"
								}

							}
, 							{
								"box" : 								{
									"color" : [ 0.870588, 0.415686, 0.062745, 1.0 ],
									"id" : "obj-4",
									"maxclass" : "newobj",
									"numinlets" : 1,
									"numoutlets" : 1,
									"outlettype" : [ "" ],
									"patching_rect" : [ 30.0, 75.0, 91.0, 22.0 ],
									"saved_object_attributes" : 									{
										"filename" : "live.coding.js",
										"parameter_enable" : 0
									}
,
									"style" : "",
									"text" : "js live.coding.js"
								}

							}
 ],
						"lines" : [ 							{
								"patchline" : 								{
									"destination" : [ "obj-4", 0 ],
									"source" : [ "obj-2", 0 ]
								}

							}
, 							{
								"patchline" : 								{
									"destination" : [ "obj-3", 0 ],
									"order" : 1,
									"source" : [ "obj-4", 0 ]
								}

							}
, 							{
								"patchline" : 								{
									"destination" : [ "obj-6", 0 ],
									"order" : 0,
									"source" : [ "obj-4", 0 ]
								}

							}
, 							{
								"patchline" : 								{
									"destination" : [ "obj-4", 0 ],
									"source" : [ "obj-5", 0 ]
								}

							}
, 							{
								"patchline" : 								{
									"destination" : [ "obj-4", 0 ],
									"source" : [ "obj-8", 0 ]
								}

							}
 ],
						"default_bgcolor" : [ 0.0, 0.0, 0.0, 1.0 ],
						"color" : [ 0.960784, 0.827451, 0.156863, 1.0 ],
						"elementcolor" : [ 0.498039, 0.462745, 0.376471, 1.0 ],
						"selectioncolor" : [ 0.784314, 0.145098, 0.023529, 1.0 ],
						"textcolor" : [ 0.960784, 0.827451, 0.156863, 1.0 ],
						"textcolor_inverse" : [ 0.960784, 0.827451, 0.156863, 1.0 ],
						"clearcolor" : [ 0.2, 0.2, 0.2, 1.0 ],
						"bgfillcolor_type" : "color",
						"bgfillcolor_color1" : [ 0.0, 0.0, 0.0, 1.0 ],
						"bgfillcolor_color2" : [ 0.290196, 0.309804, 0.301961, 1.0 ],
						"bgfillcolor_color" : [ 0.0, 0.0, 0.0, 1.0 ],
						"bgfillcolor_angle" : 270.0,
						"bgfillcolor_proportion" : 0.39
					}
,
					"patching_rect" : [ 135.0, 15.0, 71.0, 22.0 ],
					"saved_object_attributes" : 					{
						"bgcolor" : [ 0.0, 0.0, 0.0, 1.0 ],
						"clearcolor" : [ 0.2, 0.2, 0.2, 1.0 ],
						"color" : [ 0.960784, 0.827451, 0.156863, 1.0 ],
						"description" : "",
						"digest" : "",
						"elementcolor" : [ 0.498039, 0.462745, 0.376471, 1.0 ],
						"globalpatchername" : "",
						"selectioncolor" : [ 0.784314, 0.145098, 0.023529, 1.0 ],
						"style" : "",
						"tags" : "",
						"textcolor" : [ 0.960784, 0.827451, 0.156863, 1.0 ],
						"textcolor_inverse" : [ 0.960784, 0.827451, 0.156863, 1.0 ]
					}
,
					"style" : "",
					"text" : "p javascript"
				}

			}
, 			{
				"box" : 				{
					"id" : "obj-5",
					"maxclass" : "comment",
					"numinlets" : 1,
					"numoutlets" : 0,
					"patching_rect" : [ 15.0, 15.0, 75.0, 20.0 ],
					"style" : "",
					"text" : "open editor"
				}

			}
, 			{
				"box" : 				{
					"id" : "obj-3",
					"maxclass" : "button",
					"numinlets" : 1,
					"numoutlets" : 1,
					"outlettype" : [ "bang" ],
					"patching_rect" : [ 15.0, 45.0, 24.0, 24.0 ],
					"style" : ""
				}

			}
 ],
		"lines" : [ 			{
				"patchline" : 				{
					"destination" : [ "obj-10", 0 ],
					"source" : [ "obj-1", 0 ]
				}

			}
, 			{
				"patchline" : 				{
					"destination" : [ "obj-10", 0 ],
					"source" : [ "obj-12", 0 ]
				}

			}
, 			{
				"patchline" : 				{
					"destination" : [ "obj-10", 0 ],
					"source" : [ "obj-13", 0 ]
				}

			}
, 			{
				"patchline" : 				{
					"destination" : [ "obj-10", 0 ],
					"source" : [ "obj-14", 0 ]
				}

			}
, 			{
				"patchline" : 				{
					"destination" : [ "obj-10", 0 ],
					"source" : [ "obj-15", 0 ]
				}

			}
, 			{
				"patchline" : 				{
					"destination" : [ "obj-10", 0 ],
					"source" : [ "obj-19", 0 ]
				}

			}
, 			{
				"patchline" : 				{
					"destination" : [ "obj-10", 0 ],
					"source" : [ "obj-22", 0 ]
				}

			}
, 			{
				"patchline" : 				{
					"destination" : [ "obj-10", 0 ],
					"source" : [ "obj-23", 0 ]
				}

			}
, 			{
				"patchline" : 				{
					"destination" : [ "obj-10", 0 ],
					"source" : [ "obj-29", 0 ]
				}

			}
, 			{
				"patchline" : 				{
					"destination" : [ "obj-11", 0 ],
					"source" : [ "obj-3", 0 ]
				}

			}
, 			{
				"patchline" : 				{
					"destination" : [ "obj-29", 0 ],
					"source" : [ "obj-31", 0 ]
				}

			}
, 			{
				"patchline" : 				{
					"destination" : [ "obj-10", 0 ],
					"source" : [ "obj-33", 0 ]
				}

			}
, 			{
				"patchline" : 				{
					"destination" : [ "obj-10", 0 ],
					"source" : [ "obj-4", 0 ]
				}

			}
, 			{
				"patchline" : 				{
					"destination" : [ "obj-10", 0 ],
					"source" : [ "obj-6", 0 ]
				}

			}
, 			{
				"patchline" : 				{
					"destination" : [ "obj-10", 0 ],
					"source" : [ "obj-7", 0 ]
				}

			}
 ],
		"dependency_cache" : [ 			{
				"name" : "live.coding.js",
				"bootpath" : "D:/03 - Programming/01 - Max/35 - minim/max-projects/minimLiveCoding/data",
				"patcherrelativepath" : "../data",
				"type" : "TEXT",
				"implicit" : 1
			}
, 			{
				"name" : "ws.mxe64",
				"type" : "mx64"
			}
 ],
		"autosave" : 0
	}

}
